<?xml version="1.0" standalone="no"?>
<!DOCTYPE svg PUBLIC "-//W3C//DTD SVG 20010904//EN"
 "http://www.w3.org/TR/2001/REC-SVG-20010904/DTD/svg10.dtd">
<svg version="1.0" xmlns="http://www.w3.org/2000/svg"
 width="1053.000000pt" height="336.000000pt" viewBox="0 0 1053.000000 336.000000"
 preserveAspectRatio="xMidYMid meet">
<metadata>
Created by potrace 1.10, written by Peter Selinger 2001-2011
</metadata>
<g transform="translate(0.000000,336.000000) scale(0.100000,-0.100000)"
fill="#000000" stroke="none">
<path d="M1535 2875 c-134 -15 -205 -34 -335 -88 -68 -28 -187 -91 -200 -106
-3 -3 -21 -17 -40 -31 -66 -46 -107 -85 -201 -191 -102 -114 -168 -219 -233
-374 -7 -16 -21 -47 -30 -68 -9 -21 -16 -46 -16 -57 0 -11 -6 -37 -14 -57 -20
-56 -46 -209 -47 -278 0 -33 -6 -78 -14 -100 -17 -46 -19 -91 -6 -100 6 -3 13
-26 17 -50 3 -25 10 -48 15 -50 4 -3 11 -26 15 -52 4 -25 13 -58 20 -72 8 -14
14 -34 14 -44 0 -9 4 -25 9 -35 25 -47 51 -104 51 -112 0 -4 24 -48 53 -97 60
-101 171 -219 294 -312 87 -66 301 -181 338 -181 11 0 30 -7 41 -15 10 -8 33
-15 49 -15 17 0 39 -6 50 -14 44 -30 555 -38 624 -10 18 8 48 14 65 14 18 0
41 7 52 15 10 8 27 15 37 15 11 0 31 6 45 13 27 14 83 39 112 51 8 3 29 15 45
26 17 11 39 24 50 30 55 28 93 57 188 143 74 66 227 253 227 276 0 28 34 19
125 -32 22 -12 79 -35 127 -50 73 -23 101 -27 175 -25 87 3 88 3 36 12 -29 5
-53 12 -53 16 0 4 19 13 43 18 58 15 84 44 71 80 -8 22 -15 27 -39 25 -45 -3
-167 18 -192 33 -12 8 -27 14 -33 14 -12 0 -61 33 -100 68 -13 12 -28 22 -32
22 -14 0 -8 84 7 110 8 14 14 41 15 61 0 19 5 40 12 47 17 17 17 478 1 510 -7
13 -13 38 -13 56 0 17 -7 44 -15 60 -8 15 -15 38 -15 51 0 12 -7 28 -15 35 -8
7 -15 21 -15 32 0 18 -13 49 -41 98 -5 8 -14 26 -20 40 -6 14 -21 38 -33 55
-13 16 -25 36 -27 44 -17 51 -302 331 -337 331 -6 0 -12 7 -16 15 -3 8 -12 15
-20 15 -7 0 -16 7 -20 15 -3 8 -14 15 -24 15 -11 0 -25 7 -32 15 -7 8 -20 15
-30 15 -10 0 -23 7 -30 15 -7 8 -20 15 -30 15 -10 0 -23 7 -30 15 -7 8 -22 15
-34 15 -11 1 -32 7 -46 15 -14 8 -41 14 -60 15 -20 0 -41 5 -48 12 -10 10 -68
17 -287 32 -38 3 -128 -2 -200 -9z m195 -95 c25 -4 77 -14 115 -20 39 -7 79
-16 90 -20 11 -5 54 -18 95 -30 119 -34 113 -31 320 -143 67 -36 66 -35 52
-49 -8 -8 -17 -7 -34 4 -55 36 -181 49 -458 46 l-265 -3 -3 -42 -3 -43 39 0
c42 0 60 -11 85 -52 15 -25 17 -77 17 -538 0 -539 -1 -557 -45 -574 -29 -11
-84 -6 -92 8 -7 11 -144 165 -196 219 -21 21 -16 47 8 47 19 0 80 38 117 73
15 14 42 52 60 84 32 56 33 62 33 173 0 113 -4 132 -43 220 -44 100 -71 134
-146 184 -80 52 -172 66 -441 66 -128 0 -225 4 -225 9 0 27 247 230 317 260
11 6 24 15 28 20 3 6 17 11 31 11 14 0 27 7 30 15 4 8 15 15 25 15 11 0 36 9
56 20 21 11 47 20 58 20 11 0 29 7 39 15 15 12 51 15 155 14 75 0 156 -4 181
-9z m741 -297 c42 -35 168 -160 194 -193 63 -79 132 -202 195 -345 42 -97 70
-337 52 -439 -7 -35 -12 -76 -12 -91 0 -16 -7 -51 -15 -79 -8 -28 -17 -63 -20
-78 -3 -16 -11 -28 -18 -28 -11 0 -153 137 -228 221 -13 15 -67 73 -120 130
-106 115 -149 164 -149 172 0 4 21 16 48 27 145 65 224 258 177 440 -28 112
-65 187 -114 237 -23 22 -41 43 -41 47 0 13 19 5 51 -21z m-574 -9 c3 -8 -1
-23 -10 -32 -15 -14 -18 -14 -37 3 -11 10 -20 24 -20 32 0 19 59 17 67 -3z
m398 -119 c74 -82 74 -250 0 -340 -40 -48 -94 -70 -192 -79 -68 -5 -84 -4 -98
10 -9 9 -14 23 -11 31 3 8 6 104 6 213 l0 199 103 4 c141 4 157 1 192 -38z
m-405 -513 c3 -290 3 -533 1 -539 -2 -7 -17 -13 -33 -13 -25 0 -29 3 -22 18 5
9 11 256 14 547 3 292 7 532 8 535 1 2 8 -2 15 -8 9 -10 13 -137 17 -540z
m-915 444 c0 -10 -8 -24 -18 -30 -15 -9 -21 -7 -33 8 -24 33 -18 48 19 44 24
-2 32 -8 32 -22z m-170 6 c6 -4 21 -21 33 -39 22 -31 22 -32 22 -545 0 -466
-2 -516 -17 -538 -23 -35 -33 -40 -74 -40 -19 0 -40 -5 -47 -12 -16 -16 -15
-65 1 -75 6 -4 57 -10 112 -13 l100 -5 -30 -17 c-29 -17 -26 -17 130 -17 126
1 154 3 133 12 -34 13 -36 24 -5 29 17 2 23 10 25 39 4 42 -10 56 -58 61 l-35
3 -3 248 c-2 200 0 248 11 245 7 -2 57 -52 112 -113 55 -60 102 -112 105 -115
8 -7 100 -109 185 -206 108 -123 313 -326 380 -376 134 -101 290 -158 430
-157 60 0 83 3 70 9 -11 5 -35 9 -52 9 -44 1 -42 18 2 27 43 8 85 39 85 64 0
31 -29 52 -61 45 -61 -14 -183 23 -271 81 -55 36 -266 235 -270 255 -2 11 27
15 142 19 93 4 137 9 123 14 -31 11 -29 19 8 33 28 11 31 15 24 40 -10 41 -24
53 -60 53 -18 0 -38 6 -44 14 -14 17 -18 489 -4 493 14 5 58 -40 263 -267 57
-63 144 -160 194 -215 49 -55 136 -146 193 -202 76 -76 101 -107 96 -120 -30
-77 -218 -292 -304 -346 -16 -11 -29 -23 -29 -28 0 -5 -10 -14 -22 -19 -13 -6
-45 -24 -73 -41 -27 -16 -66 -37 -85 -45 -179 -80 -192 -85 -270 -95 -36 -5
-83 -13 -105 -19 -71 -17 -242 -12 -330 11 -44 11 -96 24 -115 28 -19 5 -53
16 -75 25 -22 9 -49 21 -60 25 -58 24 -180 86 -183 93 -2 4 -10 8 -18 8 -13 0
-71 35 -84 51 -3 4 -14 9 -25 13 -18 6 -153 138 -200 196 -71 88 -185 294
-185 335 0 7 -6 26 -14 42 -23 46 -36 110 -51 248 -12 109 -12 151 -1 260 7
72 18 140 24 152 7 12 12 30 12 40 0 10 7 31 15 47 8 15 15 32 15 37 0 16 71
160 106 215 30 47 39 54 67 54 18 0 37 -4 42 -8z m1649 -54 c29 -142 -5 -245
-106 -322 -40 -31 -78 -46 -78 -32 0 3 24 29 54 58 70 70 96 130 96 218 0 71
6 100 21 100 5 0 11 -10 13 -22z m-1091 -46 c37 -33 67 -116 66 -184 0 -105
-46 -186 -128 -227 -34 -17 -171 -34 -198 -24 -10 4 -13 59 -13 228 l0 224 98
4 c122 4 151 1 175 -21z m-396 -23 c9 -24 12 -177 12 -546 l1 -513 -36 0 c-31
0 -35 2 -28 18 5 9 10 257 12 550 2 410 6 532 15 529 7 -2 17 -19 24 -38z
m559 -86 c3 -16 10 -38 15 -51 19 -48 10 -119 -23 -183 -33 -64 -119 -149
-150 -149 -27 0 -31 18 -6 31 33 17 87 77 111 124 16 31 21 61 22 140 3 118 2
115 15 115 5 0 12 -12 16 -27z m634 -243 c19 -19 27 -50 14 -50 -15 0 -64 43
-64 56 0 20 27 17 50 -6z m-928 -172 c17 -14 34 -58 23 -58 -19 0 -65 37 -65
52 0 21 19 23 42 6z m608 -468 c0 -12 -31 -21 -51 -15 -19 6 -24 17 -14 27 7
7 65 -3 65 -12z"/>
<path d="M5245 2258 c-48 -26 -65 -51 -65 -94 0 -34 6 -49 31 -73 28 -28 37
-31 93 -31 50 0 67 4 81 20 10 11 24 20 30 20 7 0 24 -9 38 -20 19 -15 40 -20
87 -20 54 0 64 3 86 27 20 22 24 34 20 57 -10 46 -47 93 -89 112 -37 17 -39
17 -83 -4 -28 -14 -48 -32 -55 -49 l-10 -27 -25 32 c-43 54 -96 74 -139 50z
m51 -59 c4 -7 -1 -16 -10 -21 -9 -5 -16 -18 -16 -28 0 -26 -27 -26 -35 0 -13
40 40 83 61 49z m228 2 c9 -14 -24 -71 -40 -71 -21 0 -28 27 -16 56 11 23 45
33 56 15z"/>
<path d="M5345 2029 c-126 -14 -221 -73 -299 -187 -69 -100 -97 -293 -60 -416
34 -117 136 -236 231 -271 61 -22 189 -35 273 -28 167 14 313 147 348 318 21
98 22 121 8 205 -16 99 -29 135 -75 209 -34 53 -138 141 -168 141 -8 0 -26 6
-41 14 -34 17 -139 24 -217 15z m-41 -65 c25 -10 19 -21 -14 -28 -34 -6 -40
-11 -109 -76 -49 -46 -67 -74 -97 -145 -14 -35 -21 -113 -24 -292 0 -7 -4 -13
-9 -13 -16 0 -23 52 -22 167 0 113 3 127 49 223 20 40 116 140 136 140 8 0 27
7 42 15 34 17 29 16 48 9z m226 -146 c61 -47 91 -107 97 -193 11 -147 -48
-254 -162 -294 -100 -35 -178 -12 -232 70 -24 37 -28 53 -31 138 -4 117 15
170 88 241 80 78 170 92 240 38z m170 -139 c0 -15 5 -31 10 -34 16 -10 12
-121 -6 -183 -38 -131 -128 -212 -235 -212 -51 0 -50 16 1 25 22 4 40 11 40
15 0 5 8 11 19 15 28 9 89 71 109 113 29 58 45 169 32 225 -5 26 -7 59 -4 74
7 25 8 25 20 8 8 -11 14 -31 14 -46z m-610 -314 c0 -8 -4 -15 -10 -15 -5 0
-10 7 -10 15 0 8 5 15 10 15 6 0 10 -7 10 -15z"/>
<path d="M3596 2018 c-3 -7 -7 -128 -10 -269 -3 -140 -11 -330 -17 -422 -9
-131 -8 -171 1 -182 9 -11 35 -15 99 -15 47 0 91 4 97 8 7 4 15 72 20 181 6
117 13 176 21 178 6 2 15 -6 19 -19 8 -26 114 -253 144 -308 19 -35 19 -35 94
-38 75 -3 116 8 116 30 0 7 20 53 44 103 24 49 56 116 70 148 15 32 32 57 39
54 15 -5 25 -83 26 -208 1 -129 2 -131 121 -127 l95 3 -3 185 c-7 396 -20 633
-37 673 l-16 38 -81 -3 -82 -3 -22 -45 c-12 -25 -42 -88 -66 -140 -25 -52 -65
-138 -90 -190 -24 -52 -55 -119 -69 -147 -13 -30 -30 -53 -39 -53 -9 0 -30 33
-54 83 -178 379 -196 416 -224 460 l-25 37 -84 0 c-58 0 -85 -4 -87 -12z m86
-50 c3 -7 1 -101 -4 -208 -5 -107 -12 -278 -16 -380 -6 -155 -9 -185 -22 -185
-13 0 -15 29 -14 200 0 176 19 538 30 573 2 6 8 12 13 12 5 0 11 -6 13 -12z
m748 -2 c0 -7 -18 -49 -39 -92 -21 -44 -60 -124 -86 -179 -157 -337 -169 -360
-186 -360 -29 0 -18 40 41 163 58 118 87 179 185 387 21 44 43 83 49 87 18 12
36 9 36 -6z m4 -349 c10 -43 8 -409 -3 -420 -6 -6 -14 -7 -18 -3 -9 9 -17 387
-9 421 8 31 22 32 30 2z m-574 -52 c0 -8 -4 -15 -10 -15 -5 0 -10 7 -10 15 0
8 5 15 10 15 6 0 10 -7 10 -15z m30 -60 c0 -8 -4 -15 -10 -15 -5 0 -10 7 -10
15 0 8 5 15 10 15 6 0 10 -7 10 -15z m30 -65 c0 -11 -4 -20 -10 -20 -5 0 -10
9 -10 20 0 11 5 20 10 20 6 0 10 -9 10 -20z m30 -60 c0 -11 -4 -20 -10 -20 -5
0 -10 9 -10 20 0 11 5 20 10 20 6 0 10 -9 10 -20z m30 -66 c0 -8 -4 -14 -10
-14 -5 0 -10 9 -10 21 0 11 5 17 10 14 6 -3 10 -13 10 -21z m30 -64 c0 -11 -4
-20 -10 -20 -5 0 -10 9 -10 20 0 11 5 20 10 20 6 0 10 -9 10 -20z"/>
<path d="M6257 2023 c-4 -3 -7 -200 -7 -438 0 -322 3 -434 12 -443 9 -9 72
-12 223 -12 187 0 219 2 271 20 86 30 130 63 159 120 42 82 32 177 -27 251
-34 45 -35 61 -4 102 86 113 39 281 -99 355 -86 46 -125 52 -329 52 -106 0
-196 -3 -199 -7z m68 -439 c0 -339 -2 -389 -15 -389 -13 0 -15 49 -18 370 -1
204 0 380 3 393 3 13 11 22 18 19 9 -3 12 -97 12 -393z m340 246 c58 -36 54
-104 -7 -136 -42 -22 -172 -32 -183 -14 -8 14 -7 148 1 162 3 4 39 8 81 8 58
0 83 -5 108 -20z m119 -50 c16 -34 17 -43 6 -72 -17 -43 -36 -65 -73 -83 -34
-17 -97 -20 -97 -5 0 6 11 10 25 10 15 0 40 14 61 33 31 29 36 39 41 95 3 34
9 62 12 62 3 0 15 -18 25 -40z m-100 -312 c26 -23 31 -38 28 -91 -2 -23 -10
-32 -44 -47 -49 -22 -182 -28 -194 -8 -8 12 -6 147 2 160 3 4 45 8 94 8 78 0
92 -3 114 -22z m122 -54 c22 -85 -44 -164 -137 -164 -48 0 -51 15 -5 23 52 8
106 72 106 125 0 47 25 59 36 16z"/>
<path d="M7337 2023 c-4 -3 -7 -200 -7 -438 0 -322 3 -434 12 -443 13 -13 544
-18 564 -4 15 9 20 85 10 135 -5 20 -9 38 -10 39 0 1 -80 4 -176 7 l-175 6 -2
315 c-2 173 -7 324 -12 335 -5 11 -12 28 -15 38 -5 14 -18 17 -94 17 -49 0
-92 -3 -95 -7z m68 -439 c0 -339 -2 -389 -15 -389 -13 0 -15 49 -18 370 -1
204 0 380 3 393 3 13 11 22 18 19 9 -3 12 -97 12 -393z"/>
<path d="M8267 2023 c-4 -3 -7 -200 -7 -438 0 -322 3 -434 12 -443 9 -9 89
-12 299 -12 244 0 288 2 299 15 16 19 8 138 -10 160 -10 12 -49 15 -194 17
l-181 3 0 80 0 80 180 5 180 5 3 35 c4 42 -5 109 -18 130 -7 12 -43 16 -177
20 l-168 5 -3 78 c-2 42 -2 78 0 79 2 1 89 4 193 7 l190 6 3 42 c2 23 -3 61
-11 85 l-15 43 -284 3 c-156 1 -287 -1 -291 -5z m68 -439 c0 -339 -2 -389 -15
-389 -13 0 -15 49 -18 370 -1 204 0 380 3 393 3 13 11 22 18 19 9 -3 12 -97
12 -393z"/>
<path d="M9262 1583 l3 -448 94 -3 c52 -1 98 1 104 7 5 5 8 77 8 160 -1 83 2
151 7 151 10 0 52 -43 52 -53 0 -13 95 -145 133 -185 61 -63 108 -82 208 -84
112 -2 145 13 142 66 -2 20 -13 60 -25 87 -21 45 -26 50 -48 44 -83 -21 -99
-19 -135 21 -19 21 -35 42 -35 47 0 5 -13 26 -30 47 -16 21 -30 41 -30 44 0 4
24 18 53 30 95 42 147 117 147 208 0 100 -44 186 -124 244 -78 56 -86 58 -314
62 l-212 4 2 -449z m88 2 l0 -385 -25 0 -25 0 0 378 c0 208 3 382 7 385 3 4
15 7 25 7 17 0 18 -18 18 -385z m303 241 c24 -16 27 -25 27 -72 0 -47 -3 -56
-26 -71 -34 -22 -148 -31 -169 -13 -20 16 -22 165 -2 174 27 12 142 0 170 -18z
m122 -66 c9 -43 -2 -83 -34 -119 -33 -37 -101 -55 -101 -28 0 9 9 18 20 22 32
10 80 76 80 111 0 52 25 62 35 14z m-160 -170 c-3 -5 -31 -10 -61 -10 -30 0
-54 5 -54 10 0 6 27 10 61 10 37 0 58 -4 54 -10z"/>
</g>
</svg>
